<svg xmlns="http://www.w3.org/2000/svg" xmlns:xlink="http://www.w3.org/1999/xlink" width="1080" zoomAndPan="magnify" viewBox="0 0 810 809.999993" height="1080" preserveAspectRatio="xMidYMid meet" version="1.0"><defs><g/></defs><rect x="-81" width="972" fill="#ffffff" y="-80.999999" height="971.999992" fill-opacity="1"/><rect x="-81" width="972" fill="#07347d" y="-80.999999" height="971.999992" fill-opacity="1"/><g fill="#ffffff" fill-opacity="1"><g transform="translate(303.980763, 713.982098)"><g><path d="M 26.5625 0 L 26.5625 -164.546875 L 2.375 -164.546875 L 2.375 -203.671875 L 91.53125 -203.671875 L 91.53125 -164.546875 L 67.34375 -164.546875 L 67.34375 0 Z M 26.5625 0 "/></g></g></g><g fill="#ffffff" fill-opacity="1"><g transform="translate(397.870597, 713.982098)"><g><path d="M 6.40625 0 L 6.40625 -34.625 L 47.890625 -34.625 L 47.890625 0 Z M 6.40625 0 "/></g></g></g><g fill="#ffffff" fill-opacity="1"><g transform="translate(452.165469, 713.982098)"><g><path d="M 7.109375 0 L 7.109375 -203.671875 L 46.46875 -203.671875 L 46.46875 0 Z M 7.109375 0 "/></g></g></g><g fill="#ffffff" fill-opacity="1"><g transform="translate(186.487479, 433.104329)"><g><path d="M 29.5625 -197.109375 L 57.71875 -197.109375 L 57.71875 0 L 29.5625 0 Z M 29.5625 -197.109375 "/></g></g></g><g fill="#ffffff" fill-opacity="1"><g transform="translate(273.773225, 433.104329)"><g><path d="M 87 2.25 C 72.175781 2.25 57.863281 -0.046875 44.0625 -4.640625 C 30.269531 -9.242188 19.429688 -15.207031 11.546875 -22.53125 L 21.96875 -44.484375 C 29.46875 -37.734375 39.082031 -32.242188 50.8125 -28.015625 C 62.550781 -23.796875 74.613281 -21.6875 87 -21.6875 C 103.332031 -21.6875 115.535156 -24.453125 123.609375 -29.984375 C 131.679688 -35.523438 135.71875 -42.894531 135.71875 -52.09375 C 135.71875 -58.851562 133.507812 -64.34375 129.09375 -68.5625 C 124.6875 -72.789062 119.242188 -76.03125 112.765625 -78.28125 C 106.296875 -80.53125 97.144531 -83.0625 85.3125 -85.875 C 70.488281 -89.445312 58.523438 -93.015625 49.421875 -96.578125 C 40.316406 -100.148438 32.523438 -105.640625 26.046875 -113.046875 C 19.566406 -120.460938 16.328125 -130.460938 16.328125 -143.046875 C 16.328125 -153.554688 19.09375 -163.035156 24.625 -171.484375 C 30.164062 -179.929688 38.566406 -186.6875 49.828125 -191.75 C 61.097656 -196.820312 75.085938 -199.359375 91.796875 -199.359375 C 103.429688 -199.359375 114.878906 -197.851562 126.140625 -194.84375 C 137.410156 -191.84375 147.082031 -187.53125 155.15625 -181.90625 L 145.859375 -159.375 C 137.597656 -164.625 128.773438 -168.609375 119.390625 -171.328125 C 110.003906 -174.054688 100.804688 -175.421875 91.796875 -175.421875 C 75.835938 -175.421875 63.867188 -172.507812 55.890625 -166.6875 C 47.910156 -160.875 43.921875 -153.367188 43.921875 -144.171875 C 43.921875 -137.410156 46.171875 -131.914062 50.671875 -127.6875 C 55.179688 -123.46875 60.769531 -120.1875 67.4375 -117.84375 C 74.101562 -115.5 83.160156 -113.007812 94.609375 -110.375 C 109.441406 -106.8125 121.363281 -103.242188 130.375 -99.671875 C 139.382812 -96.109375 147.125 -90.664062 153.59375 -83.34375 C 160.070312 -76.019531 163.3125 -66.164062 163.3125 -53.78125 C 163.3125 -43.457031 160.492188 -34.023438 154.859375 -25.484375 C 149.234375 -16.941406 140.691406 -10.179688 129.234375 -5.203125 C 117.785156 -0.234375 103.707031 2.25 87 2.25 Z M 87 2.25 "/></g></g></g><g fill="#ffffff" fill-opacity="1"><g transform="translate(448.626247, 433.104329)"><g><path d="M 87 2.25 C 72.175781 2.25 57.863281 -0.046875 44.0625 -4.640625 C 30.269531 -9.242188 19.429688 -15.207031 11.546875 -22.53125 L 21.96875 -44.484375 C 29.46875 -37.734375 39.082031 -32.242188 50.8125 -28.015625 C 62.550781 -23.796875 74.613281 -21.6875 87 -21.6875 C 103.332031 -21.6875 115.535156 -24.453125 123.609375 -29.984375 C 131.679688 -35.523438 135.71875 -42.894531 135.71875 -52.09375 C 135.71875 -58.851562 133.507812 -64.34375 129.09375 -68.5625 C 124.6875 -72.789062 119.242188 -76.03125 112.765625 -78.28125 C 106.296875 -80.53125 97.144531 -83.0625 85.3125 -85.875 C 70.488281 -89.445312 58.523438 -93.015625 49.421875 -96.578125 C 40.316406 -100.148438 32.523438 -105.640625 26.046875 -113.046875 C 19.566406 -120.460938 16.328125 -130.460938 16.328125 -143.046875 C 16.328125 -153.554688 19.09375 -163.035156 24.625 -171.484375 C 30.164062 -179.929688 38.566406 -186.6875 49.828125 -191.75 C 61.097656 -196.820312 75.085938 -199.359375 91.796875 -199.359375 C 103.429688 -199.359375 114.878906 -197.851562 126.140625 -194.84375 C 137.410156 -191.84375 147.082031 -187.53125 155.15625 -181.90625 L 145.859375 -159.375 C 137.597656 -164.625 128.773438 -168.609375 119.390625 -171.328125 C 110.003906 -174.054688 100.804688 -175.421875 91.796875 -175.421875 C 75.835938 -175.421875 63.867188 -172.507812 55.890625 -166.6875 C 47.910156 -160.875 43.921875 -153.367188 43.921875 -144.171875 C 43.921875 -137.410156 46.171875 -131.914062 50.671875 -127.6875 C 55.179688 -123.46875 60.769531 -120.1875 67.4375 -117.84375 C 74.101562 -115.5 83.160156 -113.007812 94.609375 -110.375 C 109.441406 -106.8125 121.363281 -103.242188 130.375 -99.671875 C 139.382812 -96.109375 147.125 -90.664062 153.59375 -83.34375 C 160.070312 -76.019531 163.3125 -66.164062 163.3125 -53.78125 C 163.3125 -43.457031 160.492188 -34.023438 154.859375 -25.484375 C 149.234375 -16.941406 140.691406 -10.179688 129.234375 -5.203125 C 117.785156 -0.234375 103.707031 2.25 87 2.25 Z M 87 2.25 "/></g></g></g></svg>